<?xml version="1.0" standalone="no"?>
<!DOCTYPE svg PUBLIC "-//W3C//DTD SVG 20010904//EN"
 "http://www.w3.org/TR/2001/REC-SVG-20010904/DTD/svg10.dtd">
<svg version="1.0" xmlns="http://www.w3.org/2000/svg"
 width="490.000000pt" height="490.000000pt" viewBox="0 0 490.000000 490.000000"
 preserveAspectRatio="xMidYMid meet">
<metadata>
Created by potrace 1.11, written by Peter Selinger 2001-2013
</metadata>
<g transform="translate(0.000000,490.000000) scale(0.100000,-0.100000)"
fill="#000000" stroke="none">
<path d="M2637 4249 c-10 -11 -16 -23 -13 -27 3 -3 1 -11 -4 -18 -6 -6 -13
-20 -15 -30 -2 -11 -8 -33 -14 -51 -5 -17 -7 -34 -3 -37 3 -3 -1 -6 -8 -6 -7
0 -11 -3 -7 -6 3 -4 0 -22 -8 -41 -8 -19 -14 -37 -13 -41 1 -8 -11 -59 -19
-82 -4 -8 -7 -19 -8 -25 -10 -61 -19 -96 -26 -101 -4 -2 -6 -11 -2 -19 3 -8 0
-15 -7 -15 -7 0 -10 -7 -7 -15 4 -8 2 -17 -4 -20 -5 -4 -7 -11 -4 -16 4 -5 1
-9 -6 -9 -7 0 -10 -3 -7 -6 4 -3 0 -20 -7 -39 -8 -18 -11 -35 -8 -39 4 -3 1
-6 -4 -6 -6 0 -10 -11 -8 -25 1 -14 0 -23 -3 -20 -7 7 -53 -139 -55 -175 -1
-14 -7 -31 -14 -38 -7 -7 -10 -19 -7 -27 4 -8 1 -15 -5 -15 -6 0 -8 -7 -5 -15
3 -8 2 -20 -2 -27 -5 -7 -10 -24 -12 -38 -2 -13 -7 -29 -12 -35 -6 -7 -5 -16
2 -23 9 -9 9 -12 -1 -12 -8 0 -11 -6 -7 -15 3 -8 0 -15 -6 -15 -6 0 -8 -3 -5
-7 4 -3 1 -13 -6 -21 -10 -13 -9 -14 1 -8 11 7 12 4 3 -13 -7 -12 -9 -26 -6
-31 3 -5 1 -11 -5 -15 -5 -3 -10 -16 -10 -28 0 -12 -4 -29 -10 -37 -7 -12 -10
-11 -16 5 -5 11 -16 29 -26 39 -10 11 -18 25 -18 31 0 6 -9 17 -19 25 -11 7
-18 17 -15 22 3 4 0 8 -6 8 -6 0 -14 8 -17 18 -4 9 -17 28 -29 41 -13 14 -20
29 -17 34 3 6 2 7 -4 4 -11 -7 -45 28 -36 37 4 3 0 6 -9 6 -8 0 -20 11 -26 25
-6 14 -16 25 -22 25 -6 0 -9 4 -5 9 3 5 -4 12 -14 16 -11 3 -23 15 -26 26 -4
10 -11 19 -16 19 -14 0 -39 26 -39 40 0 7 -6 10 -14 7 -7 -3 -19 0 -25 6 -9 9
-15 8 -22 -6 -6 -9 -15 -15 -20 -11 -5 3 -9 2 -7 -3 1 -4 -2 -23 -6 -40 -8
-37 -31 -44 -41 -13 -3 11 -11 20 -16 20 -5 0 -9 7 -9 16 0 8 -4 12 -10 9 -5
-3 -10 3 -10 14 0 12 -4 21 -10 21 -5 0 -10 7 -10 15 0 8 -4 15 -9 15 -5 0
-14 13 -21 30 -7 16 -16 27 -21 24 -5 -3 -9 4 -9 14 0 11 -7 23 -16 26 -8 3
-12 10 -9 16 3 5 -1 10 -10 10 -9 0 -19 9 -22 20 -3 11 -9 17 -14 15 -4 -3
-15 10 -24 29 -10 21 -27 38 -43 43 -30 10 -65 6 -57 -6 2 -5 -7 -13 -20 -19
-15 -7 -25 -8 -25 -2 0 6 -4 10 -9 10 -8 0 -17 -23 -26 -65 -2 -5 -10 -33 -18
-62 -8 -28 -13 -54 -10 -56 3 -3 1 -12 -3 -19 -5 -7 -9 -15 -9 -18 -1 -9 -15
-74 -21 -100 -3 -14 -6 -35 -7 -47 -1 -13 -5 -23 -10 -23 -5 0 -7 -6 -4 -12 2
-7 -1 -29 -8 -48 -7 -19 -11 -43 -9 -52 1 -10 -2 -18 -8 -18 -6 0 -8 -7 -4
-15 3 -8 2 -15 -3 -15 -4 0 -8 -6 -9 -12 -1 -7 -4 -26 -7 -43 -3 -16 -7 -36
-7 -42 -1 -7 -5 -13 -10 -13 -5 0 -6 -11 -4 -24 2 -14 1 -26 -4 -28 -4 -2 -10
-19 -13 -38 -3 -19 -9 -48 -12 -65 -4 -16 -8 -37 -10 -45 -2 -8 -4 -15 -6 -15
-1 0 -3 -9 -5 -20 -1 -11 -6 -33 -10 -50 -4 -16 -7 -38 -8 -47 0 -10 -4 -18
-8 -18 -4 0 -7 -3 -6 -7 1 -5 -2 -27 -6 -50 -8 -43 -23 -63 -35 -47 -3 5 -12
10 -20 12 -7 2 -34 17 -59 34 -25 17 -42 25 -37 19 4 -7 -12 1 -36 18 -24 18
-48 30 -55 27 -7 -3 -15 2 -18 10 -3 9 -10 12 -16 9 -5 -3 -10 -1 -10 5 0 6
-4 9 -9 6 -5 -4 -11 -3 -13 2 -1 4 -45 29 -97 56 -52 26 -101 55 -109 63 -8 8
-20 12 -28 9 -7 -3 -18 2 -24 10 -7 8 -17 14 -22 14 -11 0 -98 59 -113 76 -20
24 -48 32 -71 22 -20 -10 -41 -48 -26 -48 4 0 8 -11 8 -25 1 -16 -2 -23 -10
-18 -6 3 -3 -3 7 -14 9 -11 14 -23 10 -26 -3 -4 -2 -7 4 -7 6 0 10 -14 9 -31
-1 -16 2 -33 7 -36 4 -3 6 -11 3 -18 -3 -8 -1 -15 4 -17 5 -2 11 -14 13 -28 4
-24 9 -42 28 -88 5 -13 9 -32 9 -42 0 -11 5 -20 11 -20 6 0 9 -6 6 -14 -3 -8
-3 -17 1 -21 4 -4 8 -11 8 -16 1 -5 2 -10 3 -11 2 -2 4 -14 7 -27 2 -14 9 -30
15 -37 7 -8 6 -14 -3 -17 -8 -3 -6 -6 5 -6 10 -1 15 -5 12 -11 -3 -5 1 -23 10
-40 11 -22 12 -30 3 -30 -6 0 -3 -7 8 -16 10 -8 13 -12 5 -8 -10 5 -12 3 -5
-7 16 -26 33 -83 27 -92 -3 -6 -1 -7 5 -3 12 7 31 -26 38 -66 2 -10 5 -23 6
-30 2 -7 7 -16 11 -19 4 -3 9 -26 10 -51 1 -25 5 -44 9 -42 4 3 7 -4 7 -13 1
-39 5 -53 13 -53 5 0 7 -4 3 -9 -3 -5 2 -16 10 -25 11 -11 12 -17 4 -22 -9 -5
-6 -11 6 -21 12 -8 14 -13 6 -13 -10 0 -10 -5 2 -23 8 -13 17 -37 18 -53 2
-16 9 -40 16 -53 6 -13 9 -30 6 -37 -3 -8 -1 -14 4 -14 13 0 18 -40 9 -77 -3
-16 1 -24 15 -28 11 -4 17 -11 14 -16 -4 -5 -2 -9 3 -9 5 0 12 -12 15 -28 9
-48 15 -70 27 -91 6 -12 8 -21 5 -21 -3 0 1 -13 10 -30 18 -34 19 -44 4 -34
-6 3 -4 -5 6 -19 9 -14 18 -38 20 -54 2 -15 4 -30 5 -33 2 -3 2 -8 1 -12 0 -5
3 -8 7 -8 4 0 9 -12 10 -27 1 -15 7 -30 12 -33 5 -3 11 -18 12 -33 1 -15 6
-27 11 -27 4 0 6 -4 2 -9 -3 -5 -1 -12 4 -16 6 -3 8 -12 4 -20 -3 -8 -1 -15 4
-15 5 0 10 -12 11 -27 1 -15 5 -29 10 -32 6 -6 11 -20 16 -47 1 -7 8 -19 15
-28 11 -13 11 -16 0 -16 -8 0 -6 -5 6 -13 10 -8 15 -19 11 -25 -4 -7 -2 -12 4
-12 6 0 8 -4 5 -10 -3 -5 -1 -10 4 -10 6 0 11 -7 11 -15 0 -9 8 -19 18 -22 9
-4 20 -10 23 -15 5 -8 34 -11 74 -7 39 3 56 -1 49 -13 -4 -6 -3 -8 4 -4 6 3
23 1 39 -6 15 -6 30 -12 33 -12 3 -1 11 -5 18 -9 7 -5 41 -11 75 -13 34 -3 65
-11 69 -17 6 -9 8 -9 8 0 0 15 60 14 79 -1 12 -9 13 -8 6 4 -7 13 -6 13 7 2 9
-7 19 -9 22 -4 3 5 38 9 78 10 40 0 107 3 148 7 41 3 92 6 113 7 20 1 37 6 37
12 0 6 5 4 10 -4 5 -8 10 -10 10 -5 0 6 23 10 50 10 28 0 50 2 50 6 0 3 20 6
45 5 25 -1 45 2 45 6 0 4 10 5 21 3 12 -3 27 -1 33 3 6 3 18 8 26 10 36 7 87
14 108 14 12 0 22 3 22 7 0 4 6 8 13 9 6 1 28 4 47 7 19 3 43 7 53 8 9 1 17 5
17 9 0 4 9 5 20 3 11 -2 20 1 20 7 0 6 3 8 6 5 4 -3 16 -2 27 4 14 8 18 8 13
0 -5 -7 -1 -9 8 -5 9 3 16 9 16 13 0 4 10 7 22 8 11 1 24 7 28 14 6 8 9 8 13
-2 4 -9 6 -10 6 -2 1 7 8 10 18 6 11 -4 14 -3 9 5 -5 8 -2 10 9 6 8 -4 21 -2
28 4 6 5 24 12 39 16 15 3 40 11 55 18 15 6 30 12 33 13 3 0 36 16 75 34 38
18 75 34 82 35 7 1 16 5 19 9 4 4 16 7 26 7 10 0 18 5 18 10 0 6 6 10 13 8 6
-1 27 6 45 15 18 10 37 15 42 12 6 -3 10 -1 10 4 0 6 6 11 14 11 8 0 22 8 32
17 10 10 19 17 21 15 7 -6 53 11 53 20 0 6 7 8 15 4 8 -3 15 -2 15 3 0 8 21
17 44 19 5 0 12 4 15 9 3 5 25 17 49 27 23 11 42 22 42 27 0 4 13 10 30 14 16
4 45 17 65 30 19 14 35 22 35 20 0 -3 9 3 19 13 37 32 50 42 61 42 5 0 10 4
10 9 0 6 10 8 21 6 12 -3 19 -2 16 1 -8 8 74 80 87 76 6 -2 8 -1 4 3 -7 7 71
82 80 77 2 -2 13 9 23 25 10 15 19 24 19 18 0 -5 11 3 25 19 14 16 25 26 25
22 0 -4 15 7 33 23 17 17 38 31 45 31 7 0 10 5 7 10 -3 6 -2 10 4 10 5 0 31
20 58 45 26 25 52 45 56 45 5 0 5 5 2 10 -3 6 -2 10 4 10 6 0 21 11 35 25 14
14 23 25 22 25 -2 0 18 22 44 49 27 27 46 52 42 55 -3 3 0 6 6 6 6 0 14 9 17
20 4 11 11 18 16 15 5 -4 9 0 9 8 0 14 13 28 65 74 42 37 47 49 33 75 -20 34
-41 48 -55 36 -7 -6 -10 -14 -7 -19 3 -5 1 -9 -4 -9 -5 0 -93 -83 -196 -185
-102 -102 -190 -185 -196 -185 -6 0 -9 -3 -7 -7 2 -5 -6 -18 -19 -31 -13 -12
-24 -21 -24 -19 0 2 -40 -35 -90 -82 -107 -103 -150 -141 -180 -161 -12 -8
-28 -20 -35 -27 -7 -7 -15 -9 -19 -6 -3 4 -6 1 -6 -5 0 -7 -7 -12 -15 -12 -8
0 -15 -4 -15 -10 0 -5 -7 -10 -16 -10 -8 0 -12 -5 -9 -10 4 -6 3 -10 -2 -9
-25 4 -43 -2 -37 -13 5 -8 2 -9 -9 -5 -10 3 -17 2 -17 -4 0 -6 -4 -7 -10 -4
-5 3 -10 2 -10 -3 0 -6 -19 -20 -42 -32 -24 -12 -66 -35 -95 -51 -29 -16 -59
-29 -68 -29 -10 0 -13 -5 -9 -12 5 -8 2 -9 -9 -5 -10 3 -17 2 -17 -4 0 -6 -4
-7 -10 -4 -5 3 -10 1 -10 -4 0 -6 -9 -11 -19 -11 -11 0 -26 -6 -33 -13 -7 -8
-21 -13 -30 -11 -10 1 -16 -3 -15 -9 1 -7 -6 -11 -15 -9 -10 2 -18 -3 -18 -9
0 -7 -3 -10 -6 -7 -3 4 -21 0 -40 -8 -19 -8 -39 -12 -44 -9 -5 3 -13 -2 -18
-11 -5 -9 -13 -15 -18 -15 -19 3 -103 -23 -98 -30 2 -4 -4 -6 -13 -5 -10 2
-32 -3 -49 -10 -17 -7 -34 -11 -36 -9 -2 3 -23 -4 -47 -15 -23 -12 -46 -18
-51 -15 -6 3 -10 1 -10 -5 0 -6 -4 -8 -10 -5 -5 3 -10 0 -10 -7 0 -9 -3 -9
-10 2 -9 13 -11 13 -19 1 -5 -8 -20 -15 -33 -16 -12 -1 -30 -5 -38 -8 -13 -4
-63 -18 -80 -21 -3 -1 -9 -4 -15 -7 -5 -4 -18 -5 -27 -4 -10 2 -18 0 -18 -5 0
-4 -17 -11 -37 -15 -93 -19 -108 -23 -108 -25 0 -1 -9 -3 -20 -5 -11 -1 -33
-6 -50 -9 -92 -21 -137 -25 -152 -13 -8 5 -13 6 -13 0 0 -5 -12 -8 -27 -7 -16
1 -32 -1 -38 -5 -5 -3 -28 -7 -50 -8 -85 -5 -95 -6 -95 -12 0 -4 -18 -6 -40
-6 -22 0 -40 2 -40 5 0 3 -24 6 -53 7 -92 4 -137 8 -137 13 0 3 -18 5 -40 4
-22 0 -40 4 -40 9 0 5 -7 4 -15 -3 -9 -7 -15 -8 -15 -2 0 6 -11 9 -25 7 -14
-1 -25 3 -25 9 0 7 -3 6 -8 -2 -9 -13 -58 -12 -81 3 -10 5 -12 4 -7 -3 9 -15
1 -15 -26 -1 -16 9 -19 8 -13 -2 5 -8 4 -10 -4 -5 -6 4 -24 9 -39 12 -35 5
-67 12 -67 14 0 1 -13 4 -29 6 -32 3 -36 6 -40 26 -2 7 -8 26 -15 41 -13 34
-8 47 22 46 39 -1 98 11 128 26 16 9 29 13 29 10 0 -2 9 3 20 13 12 9 24 17
28 16 12 0 40 40 35 52 -2 6 7 18 21 28 16 10 23 22 20 31 -4 10 -10 12 -18 6
-6 -5 -29 -12 -51 -14 -22 -2 -51 -9 -65 -14 -14 -6 -28 -9 -32 -6 -5 2 -8 0
-8 -6 0 -6 -7 -8 -15 -5 -8 4 -15 1 -15 -6 0 -6 -4 -8 -10 -5 -5 3 -10 2 -10
-4 0 -5 -9 -8 -20 -6 -11 2 -20 0 -20 -5 0 -4 -13 -13 -30 -18 -24 -9 -33 -8
-45 5 -18 18 -16 59 3 55 6 -1 12 2 12 8 0 5 7 10 15 10 8 0 15 5 15 11 0 6 7
8 16 5 8 -3 12 -2 9 3 -3 5 10 15 29 22 19 7 33 16 31 20 -3 4 6 10 20 13 32
8 33 26 1 24 -14 -1 -22 -7 -19 -12 4 -5 0 -7 -8 -4 -8 3 -23 0 -33 -8 -11 -7
-23 -11 -27 -8 -5 3 -9 0 -9 -6 0 -6 -4 -9 -9 -5 -5 3 -12 1 -16 -5 -4 -6 -11
-8 -16 -5 -5 4 -9 2 -9 -3 0 -5 -9 -8 -21 -7 -22 1 -41 23 -33 37 3 4 -2 8
-12 8 -13 0 -14 3 -4 15 7 8 24 15 39 15 14 -1 40 2 56 5 17 4 38 6 48 6 9 0
17 4 17 10 0 5 6 9 14 9 30 0 130 66 121 80 -3 4 4 18 15 30 23 26 20 36 -7
25 -10 -5 -21 -7 -26 -7 -4 1 -7 -3 -7 -9 0 -6 -7 -9 -15 -5 -8 3 -15 2 -15
-2 0 -12 -69 -34 -81 -26 -8 5 -9 3 -4 -6 6 -10 4 -12 -8 -7 -10 3 -17 2 -17
-2 0 -5 -11 -8 -25 -6 -14 1 -25 -1 -25 -5 0 -4 -24 -6 -52 -4 -78 4 -85 5
-70 11 6 2 10 9 6 14 -3 5 -2 9 3 8 11 -3 67 13 73 20 3 3 32 20 64 36 33 17
62 37 65 45 3 13 2 13 -11 2 -13 -10 -17 -10 -21 0 -4 11 -6 10 -6 0 -1 -7 -6
-10 -11 -7 -6 3 -10 1 -10 -5 0 -6 -4 -9 -9 -5 -5 3 -12 1 -16 -5 -9 -15 -27
-12 -20 3 4 6 -1 3 -9 -7 -9 -11 -16 -17 -16 -14 0 3 -22 0 -50 -7 -41 -11
-51 -11 -61 1 -9 11 -8 14 1 14 8 0 10 3 7 7 -6 5 62 42 88 46 5 1 16 8 23 14
7 7 19 13 26 13 8 0 19 7 26 15 7 8 16 12 21 9 5 -3 9 -1 9 3 0 5 17 17 38 28
20 11 43 26 50 32 7 7 20 13 28 13 8 0 17 7 20 15 4 8 10 12 15 9 5 -3 12 2
15 10 3 9 9 14 13 13 3 -2 19 9 34 23 23 22 25 27 9 25 -24 -1 -82 -26 -82
-34 0 -4 -9 -7 -19 -8 -10 -1 -41 -12 -68 -24 -26 -12 -50 -22 -53 -22 -3 0
-11 -7 -18 -14 -7 -7 -20 -13 -28 -13 -8 0 -14 -5 -14 -11 0 -5 -4 -8 -9 -4
-5 3 -12 1 -16 -5 -4 -6 -11 -8 -16 -5 -5 4 -9 2 -9 -4 0 -6 -18 -16 -40 -22
-22 -7 -40 -17 -40 -23 0 -6 -5 -5 -12 2 -7 7 -19 12 -29 12 -15 0 -17 11 -10
53 0 5 5 6 10 2 5 -3 12 -1 16 5 4 6 11 8 16 5 5 -4 12 1 15 9 3 9 10 13 15
10 5 -3 9 0 9 6 0 6 5 8 10 5 6 -3 13 1 16 9 3 9 10 13 15 10 5 -3 9 5 9 18 0
17 -3 19 -9 9 -7 -11 -9 -11 -14 0 -4 11 -6 11 -6 1 -1 -7 -5 -11 -9 -8 -5 3
-32 -4 -61 -15 -47 -17 -54 -18 -67 -4 -9 8 -14 15 -12 16 2 0 11 2 21 5 9 2
25 6 35 8 9 3 19 5 22 6 3 1 8 2 13 1 4 0 7 3 7 9 0 6 3 9 8 8 4 -1 20 4 35
10 16 7 32 12 36 12 4 0 16 9 26 20 10 11 24 20 30 20 7 0 15 7 19 15 3 8 14
15 25 15 11 0 24 7 29 16 5 9 11 14 13 13 7 -6 49 28 42 34 -3 4 -1 7 6 7 7 0
10 4 7 9 -10 15 -39 6 -47 -15 -4 -11 -8 -13 -8 -5 -1 10 -6 8 -18 -6 -10 -11
-24 -18 -30 -16 -7 3 -16 -2 -19 -11 -3 -8 -12 -12 -19 -10 -7 3 -16 1 -20 -5
-9 -16 -35 -13 -35 4 0 17 -29 10 -47 -13 -7 -9 -13 -13 -13 -9 0 4 -9 3 -21
-3 -43 -23 -135 -34 -137 -17 -3 35 -8 53 -14 57 -4 3 -9 15 -11 25 -7 36 -18
80 -26 100 -7 17 -30 102 -35 130 -1 6 -5 16 -9 23 -5 6 -4 12 1 12 6 0 1 17
-9 37 -10 21 -19 45 -19 55 0 9 -4 19 -9 22 -4 3 -14 27 -21 53 -7 27 -16 53
-19 58 -3 6 -7 16 -8 23 -2 6 -4 18 -6 25 -1 6 -6 17 -10 23 -3 6 -8 25 -9 43
-1 17 -5 31 -8 31 -3 0 -7 12 -8 26 -1 14 -8 45 -16 68 -8 22 -17 59 -20 81
-4 24 -15 47 -29 57 l-22 18 23 0 c12 0 22 -4 22 -9 0 -5 12 -11 28 -14 15 -3
50 -22 79 -41 29 -19 67 -36 85 -39 18 -2 53 -14 78 -27 25 -13 46 -22 48 -21
9 5 22 -1 17 -9 -3 -6 1 -7 9 -4 9 4 16 1 16 -6 0 -7 7 -10 15 -6 9 3 18 -1
21 -9 4 -8 10 -12 15 -9 5 3 9 0 9 -5 0 -6 3 -11 8 -10 15 2 52 -14 52 -22 0
-5 9 -9 20 -9 11 0 20 -5 20 -11 0 -5 4 -8 9 -4 5 3 15 0 23 -7 7 -7 22 -15
33 -16 11 -2 24 -10 28 -18 4 -8 15 -14 23 -14 9 0 12 -5 8 -12 -4 -6 -3 -8 4
-4 6 3 17 0 24 -8 9 -9 20 -11 36 -5 17 6 24 5 28 -6 4 -8 10 -13 14 -10 5 3
13 -3 19 -12 5 -10 13 -17 18 -16 16 3 83 -41 89 -59 3 -10 12 -18 20 -18 8 0
14 -4 14 -10 0 -17 50 -12 51 5 3 28 4 33 11 40 4 4 4 13 1 21 -3 8 3 21 13
29 15 11 16 15 4 15 -13 1 -13 2 0 13 9 7 15 19 15 27 -1 8 5 24 12 36 7 11
10 24 6 27 -3 4 -1 7 5 7 7 0 11 3 10 8 -1 4 3 17 10 30 7 12 9 22 5 22 -4 0
0 5 10 11 9 5 17 17 17 25 0 8 4 22 10 32 12 20 27 63 28 76 0 5 4 12 9 15 12
9 53 99 53 116 0 8 5 15 11 15 5 0 7 5 4 10 -3 6 -1 10 4 10 6 0 10 3 9 8 -1
4 4 23 12 42 7 19 14 40 15 45 0 6 6 20 13 33 7 12 9 22 5 22 -4 0 0 5 9 10 9
6 15 19 13 29 -2 10 4 27 14 37 9 11 15 27 13 38 -3 13 0 16 9 11 8 -5 10 -4
5 4 -4 6 -2 18 4 26 7 8 10 15 6 15 -3 0 5 23 19 51 l26 51 32 -37 c18 -20 40
-51 50 -68 9 -18 17 -27 17 -22 0 5 11 -6 24 -25 13 -19 21 -39 18 -44 -3 -5
0 -6 6 -2 6 4 16 -4 23 -16 7 -12 18 -29 26 -36 7 -7 13 -20 13 -28 0 -8 6
-13 13 -11 6 1 11 -4 10 -10 -2 -7 2 -13 8 -13 5 0 8 -4 5 -9 -3 -5 1 -14 9
-21 8 -7 15 -19 15 -26 0 -8 4 -14 8 -14 5 0 15 -12 23 -27 8 -16 16 -30 19
-33 17 -17 60 -80 54 -80 -4 0 2 -8 13 -17 11 -10 31 -35 45 -55 13 -21 28
-35 32 -30 4 4 7 3 6 -3 -5 -23 1 -35 17 -35 9 0 13 -3 10 -6 -9 -9 58 -74 82
-79 16 -3 30 11 35 35 1 3 5 11 9 18 5 6 6 12 2 12 -3 0 2 17 10 38 9 20 16
38 16 40 -1 1 -1 3 0 5 1 5 8 33 13 57 3 13 6 40 8 60 1 19 5 42 9 51 8 15 17
53 23 94 2 11 4 20 6 20 2 0 9 52 12 83 1 6 5 12 9 12 4 0 6 9 4 20 -2 11 -1
20 3 20 4 0 9 13 10 30 1 16 7 41 12 55 5 14 12 39 15 56 3 16 12 48 19 72 8
23 18 59 21 80 4 20 11 37 16 37 5 0 6 7 3 15 -4 8 -1 15 5 15 6 0 8 6 5 13
-3 8 4 35 16 61 11 26 18 52 15 56 -3 5 3 16 12 26 10 10 17 19 16 21 -10 12
-1 31 12 27 8 -4 15 -12 15 -20 0 -8 6 -13 13 -12 6 2 11 -3 9 -9 -1 -7 2 -13
8 -13 5 0 10 -7 10 -15 0 -8 3 -15 8 -15 4 0 20 -20 35 -45 16 -25 34 -45 40
-45 5 0 8 -3 4 -6 -3 -4 0 -12 6 -19 7 -7 36 -39 64 -71 28 -32 65 -75 82 -94
17 -19 31 -41 31 -47 0 -7 6 -13 14 -13 14 0 31 -28 27 -45 -2 -5 1 -7 5 -3 6
7 26 -18 60 -74 6 -10 14 -15 17 -11 4 3 7 -1 7 -10 0 -10 5 -17 10 -17 6 0
10 -9 10 -19 0 -10 6 -21 14 -24 8 -3 13 -16 12 -31 -3 -23 8 -32 49 -40 16
-4 46 14 40 24 -3 4 -1 10 5 12 6 2 12 12 14 24 2 11 12 38 22 60 10 21 18 44
18 49 1 6 7 16 14 23 7 8 10 18 7 23 -4 5 -2 9 3 9 5 0 9 6 9 13 0 6 13 39 29
72 15 33 28 62 29 65 1 3 9 21 17 40 9 19 14 38 12 42 -2 3 4 9 13 12 12 4 19
17 20 38 4 52 6 58 17 58 6 0 4 5 -4 10 -13 8 -13 10 2 10 11 0 15 5 12 15 -4
8 -1 15 5 15 6 0 10 3 9 8 -1 4 4 23 12 42 7 19 14 40 15 45 0 6 4 16 8 23 5
6 5 12 1 12 -4 0 0 8 9 18 8 9 16 19 16 22 0 3 4 18 10 33 6 16 11 32 11 37 0
5 8 14 18 19 9 6 14 11 9 11 -10 0 58 133 77 149 13 11 17 11 22 -3 3 -9 4
-23 1 -31 -4 -8 -2 -17 3 -20 10 -6 8 -24 -4 -44 -7 -10 -5 -12 3 -6 9 5 12 1
10 -11 -1 -11 1 -26 4 -34 4 -8 9 -26 11 -40 3 -14 5 -25 6 -25 1 0 4 -16 7
-35 2 -19 8 -37 11 -40 4 -3 8 -18 10 -35 1 -16 3 -36 4 -42 1 -7 6 -13 11
-13 6 0 7 -3 4 -7 -4 -3 -2 -12 4 -20 8 -9 8 -13 1 -13 -6 0 -9 -7 -6 -15 4
-8 11 -12 16 -9 6 4 5 -2 -1 -14 -6 -12 -7 -22 -2 -24 6 -2 12 -14 14 -28 2
-14 9 -38 16 -53 6 -16 9 -32 6 -37 -3 -5 -1 -11 5 -15 6 -4 8 -11 5 -16 -4
-5 -1 -9 6 -9 7 0 10 -3 6 -6 -3 -4 0 -19 9 -35 8 -16 12 -29 9 -29 -3 0 0
-10 7 -22 7 -13 13 -25 14 -28 0 -3 3 -12 7 -20 3 -8 7 -24 9 -35 2 -11 12
-28 23 -38 11 -10 13 -15 5 -11 -12 7 -13 5 -3 -8 7 -8 10 -18 6 -21 -3 -4 -2
-7 4 -7 11 0 12 -6 17 -68 3 -27 -1 -48 -10 -56 -7 -8 -10 -16 -7 -20 4 -3 1
-6 -6 -6 -7 0 -9 -4 -6 -10 3 -5 -1 -10 -9 -10 -9 0 -16 -7 -16 -15 0 -9 -10
-20 -22 -25 -13 -5 -20 -9 -15 -9 8 -1 -29 -41 -38 -41 -12 0 -85 -76 -85 -88
0 -7 -4 -10 -10 -7 -5 3 -10 3 -11 -2 0 -4 -2 -17 -4 -28 -4 -19 -3 -19 10 -2
9 12 15 15 20 7 5 -8 12 -8 23 2 10 8 34 22 55 31 35 16 72 51 155 146 21 25
31 30 37 21 15 -24 12 -55 -7 -72 -10 -10 -18 -16 -18 -13 0 2 -11 -7 -25 -21
-14 -14 -25 -29 -25 -34 0 -6 -7 -10 -15 -10 -8 0 -15 -4 -15 -10 0 -5 -7 -10
-15 -10 -8 0 -15 -9 -15 -20 0 -19 2 -20 29 -5 16 8 31 19 33 25 2 6 13 12 25
13 12 0 20 3 18 6 -3 2 9 14 26 27 38 28 56 17 55 -33 -1 -22 -10 -41 -28 -58
-16 -14 -28 -30 -28 -35 0 -6 -7 -10 -15 -10 -8 0 -15 -6 -15 -14 0 -8 -4 -16
-9 -18 -4 -1 -29 -20 -54 -41 -25 -22 -48 -38 -51 -38 -3 1 -24 -17 -45 -38
-22 -22 -41 -37 -44 -35 -2 2 -12 -6 -23 -18 -10 -12 -13 -18 -6 -14 6 4 12 2
12 -4 0 -6 4 -9 9 -5 5 3 13 1 16 -5 4 -6 12 -7 18 -3 7 5 21 8 32 8 11 0 26
5 33 12 8 7 18 10 24 7 7 -4 8 -2 4 4 -6 11 6 16 27 13 4 0 6 2 5 6 -2 5 -1 8
2 8 7 0 29 19 81 68 22 20 45 37 51 37 6 0 9 3 5 6 -3 3 4 17 15 30 16 17 25
21 34 13 25 -21 -10 -99 -45 -99 -8 0 -12 -3 -8 -6 6 -6 -33 -49 -45 -49 -15
0 -28 -23 -22 -39 5 -13 9 -14 20 -5 8 6 14 9 14 5 0 -3 9 2 20 11 11 10 29
26 39 35 29 24 59 39 64 31 2 -5 7 -25 11 -45 6 -31 4 -38 -9 -38 -10 0 -13 5
-9 13 6 9 5 9 -8 0 -8 -7 -18 -9 -22 -5 -5 4 -6 -2 -4 -14 3 -23 -20 -74 -34
-74 -5 0 -7 -4 -4 -9 6 -10 -81 -101 -96 -101 -5 0 -6 -4 -3 -10 3 -5 2 -10
-4 -10 -6 0 -19 -10 -31 -22 -11 -12 -20 -18 -20 -13 0 4 -9 0 -19 -9 -11 -10
-28 -19 -38 -21 -10 -1 -16 -9 -15 -16 2 -8 0 -11 -4 -6 -8 8 -44 -21 -44 -36
0 -6 3 -7 7 -4 3 4 12 2 20 -4 9 -9 13 -8 13 0 0 7 10 10 25 7 14 -3 23 -1 20
5 -4 5 2 9 13 9 10 0 22 3 26 7 4 5 12 9 17 9 5 1 11 3 14 4 3 1 8 3 13 4 4 0
14 7 22 13 53 44 79 63 89 63 6 0 10 6 9 13 -2 6 3 11 10 9 6 -1 12 5 12 13 0
8 5 15 10 15 6 0 10 7 10 16 0 8 4 13 9 9 5 -3 12 4 16 15 3 11 11 20 16 20 5
0 9 6 9 14 0 8 6 16 14 19 11 4 13 0 11 -15 -3 -12 -8 -24 -13 -27 -14 -9 -10
-41 4 -41 7 0 15 6 17 13 4 9 6 9 6 0 1 -7 -9 -21 -21 -33 -12 -11 -19 -20
-15 -20 4 0 -1 -8 -10 -18 -10 -11 -21 -17 -24 -15 -4 1 -10 -9 -13 -22 -4
-14 -10 -24 -15 -21 -4 3 -14 -3 -23 -12 -23 -26 -67 -62 -76 -62 -4 0 -15 -8
-23 -17 -14 -16 -56 -51 -84 -71 -6 -4 -23 -24 -38 -44 -25 -34 -26 -38 -9
-38 24 0 76 26 92 45 7 8 17 15 22 15 5 0 18 9 30 20 12 10 25 17 30 14 4 -3
8 2 8 11 0 9 4 14 9 11 4 -3 18 6 31 19 13 13 26 22 31 20 4 -3 10 4 14 15 4
11 10 18 15 15 4 -3 11 2 14 11 3 8 10 12 16 9 5 -3 10 -1 10 5 0 6 5 8 10 5
6 -3 10 -1 10 5 0 15 46 60 54 53 3 -4 6 -2 6 4 0 6 9 9 20 6 10 -3 19 -8 19
-12 -3 -18 15 -51 27 -51 8 0 14 -4 14 -10 0 -6 9 -5 24 2 26 11 29 37 9 73
-6 11 -11 22 -11 25 0 16 -26 99 -38 120 -19 34 -37 82 -38 100 0 8 -6 21 -13
28 -7 7 -14 20 -14 28 -1 14 -4 27 -9 42 -1 4 -2 10 -1 15 0 4 -3 7 -9 7 -5 0
-10 9 -10 21 0 13 -4 18 -12 13 -7 -5 -9 -2 -6 8 4 8 -1 30 -9 49 -20 45 -44
106 -47 119 -1 3 -7 15 -14 28 -7 12 -10 22 -6 22 3 0 1 6 -5 13 -6 8 -8 17
-4 20 3 4 1 7 -5 7 -7 0 -12 6 -12 14 0 7 -7 26 -14 42 -8 15 -13 31 -10 36 3
4 0 8 -5 8 -6 0 -11 9 -11 19 0 11 -4 22 -10 26 -5 3 -7 12 -3 20 3 8 0 15 -6
15 -6 0 -8 7 -5 15 4 8 1 15 -5 15 -6 0 -11 5 -11 11 0 5 6 7 13 4 6 -4 1 2
-12 13 -16 13 -20 21 -12 26 9 6 9 11 1 21 -16 20 -59 153 -52 161 4 4 1 4 -5
0 -9 -5 -13 -1 -13 11 0 10 -7 31 -15 46 -8 15 -9 25 -3 21 7 -5 8 -3 2 7 -5
8 -9 16 -10 19 0 3 -4 14 -8 25 -29 75 -34 93 -29 99 4 3 1 6 -5 6 -7 0 -12 6
-12 14 0 8 -5 27 -12 43 -6 15 -10 32 -9 37 1 4 -3 14 -9 21 -6 7 -12 28 -14
46 -2 19 -6 41 -10 49 -3 8 -7 24 -9 35 -1 11 -6 25 -9 31 -4 6 -8 29 -9 52
-2 23 -6 42 -9 42 -3 0 -6 9 -7 20 -1 13 2 18 9 14 7 -5 8 -2 2 7 -5 8 -9 33
-9 56 -1 23 -3 44 -6 47 -2 2 -4 42 -3 88 1 65 -2 86 -15 95 -24 18 -45 15
-61 -8 -8 -12 -26 -34 -40 -49 -14 -15 -26 -33 -28 -41 -2 -8 -9 -17 -15 -21
-7 -4 -9 -8 -4 -8 4 0 -4 -18 -18 -40 -14 -22 -23 -40 -19 -40 3 0 -3 -12 -14
-27 -11 -16 -37 -71 -59 -123 -53 -127 -55 -132 -60 -154 -2 -11 -8 -25 -13
-31 -5 -7 -7 -15 -3 -18 3 -4 1 -7 -5 -7 -7 0 -11 -3 -10 -7 0 -5 -2 -17 -6
-28 -4 -11 -12 -32 -18 -47 -6 -16 -14 -28 -17 -28 -20 0 -163 135 -153 145 4
4 2 5 -3 3 -14 -4 -66 43 -59 54 3 4 1 8 -5 8 -5 0 -25 15 -44 34 -20 19 -38
32 -41 28 -3 -3 -6 3 -6 13 0 10 -3 16 -6 13 -3 -4 -18 7 -33 23 -15 16 -31
26 -34 22 -4 -3 -7 1 -7 10 0 10 -5 17 -12 17 -13 0 -88 79 -88 93 0 4 -4 6
-10 2 -5 -3 -42 27 -82 67 -40 40 -89 84 -108 98 -19 13 -37 27 -40 30 -15 19
-101 70 -117 70 -10 0 -27 -9 -36 -21z m83 -205 c0 -17 -22 -14 -28 4 -2 7 3
12 12 12 9 0 16 -7 16 -16z m116 -31 c-3 -3 8 -16 25 -30 16 -14 29 -31 29
-39 0 -8 4 -13 8 -11 10 3 132 -119 132 -133 0 -5 4 -10 8 -10 5 0 15 -11 22
-25 7 -13 17 -22 21 -19 4 2 13 -5 19 -16 6 -12 24 -34 41 -49 16 -16 29 -34
29 -40 0 -7 5 -9 10 -6 6 3 10 2 10 -2 0 -9 66 -83 74 -83 7 0 126 -118 126
-124 0 -10 51 -56 63 -56 8 0 8 -3 2 -8 -9 -7 -14 -19 -19 -50 -1 -7 -9 -21
-17 -30 -26 -31 -34 -46 -18 -37 8 5 7 0 -3 -12 -10 -11 -18 -24 -18 -30 0 -6
-10 -23 -21 -38 l-22 -27 -23 26 c-13 14 -24 30 -24 35 0 6 -9 16 -20 23 -11
7 -20 22 -20 33 0 17 -2 17 -10 5 -8 -13 -10 -12 -10 3 0 9 -3 16 -8 15 -11
-4 -62 38 -55 46 3 3 0 6 -7 6 -7 0 -11 3 -7 6 3 3 -15 27 -40 52 -25 26 -46
51 -48 57 -5 25 -18 45 -29 45 -6 1 -22 15 -36 31 -14 17 -40 47 -57 67 -18
20 -33 43 -33 50 0 6 -4 12 -9 12 -5 0 -11 8 -15 18 -11 32 -43 81 -50 75 -3
-3 -6 4 -6 16 0 12 -4 20 -9 16 -5 -3 -12 -1 -15 4 -14 23 -71 -10 -81 -46 -5
-16 -8 -31 -7 -35 1 -5 -3 -8 -10 -8 -6 0 -8 -3 -5 -7 4 -3 2 -12 -4 -20 -6
-7 -8 -13 -4 -13 4 0 2 -6 -4 -14 -7 -8 -14 -27 -17 -43 -3 -15 -7 -32 -8 -38
-1 -5 -7 -20 -14 -32 -7 -12 -11 -26 -11 -30 1 -4 -3 -21 -10 -38 -7 -16 -15
-39 -17 -50 -10 -41 -13 -50 -14 -52 -6 -7 -24 -97 -22 -105 1 -5 -2 -8 -8 -8
-5 0 -7 -6 -4 -14 3 -8 1 -17 -5 -21 -6 -3 -11 -17 -11 -30 0 -13 -4 -26 -9
-29 -5 -3 -7 -15 -4 -26 3 -11 1 -20 -5 -20 -6 0 -9 -8 -7 -17 1 -10 -3 -27
-9 -38 -7 -11 -12 -31 -11 -45 0 -14 -3 -27 -7 -30 -4 -3 -8 -20 -10 -38 -1
-18 -5 -32 -9 -32 -3 0 -5 -11 -4 -25 2 -14 -1 -25 -6 -25 -5 0 -8 -3 -8 -7 1
-5 0 -11 -1 -15 -1 -5 -3 -11 -4 -15 -7 -30 -29 -83 -34 -83 -4 0 -16 12 -27
27 -11 14 -26 32 -33 40 -7 7 -11 13 -7 13 3 0 -3 12 -12 27 -10 15 -12 24 -5
20 8 -6 11 -2 8 15 -2 13 1 29 6 35 6 7 7 20 4 29 -5 13 0 15 27 11 62 -8 89
36 41 68 -15 9 -23 12 -20 6 4 -7 1 -9 -8 -5 -11 4 -13 12 -6 30 5 13 7 24 4
24 -4 0 -1 6 5 13 6 8 8 16 5 20 -3 3 12 4 35 3 25 -2 38 1 34 7 -4 6 1 8 11
4 10 -4 15 -3 11 3 -3 6 -1 10 6 10 7 0 9 8 6 21 -3 13 1 26 13 36 10 9 16 22
13 29 -6 15 -46 12 -67 -6 -9 -7 -16 -9 -16 -5 0 4 -7 2 -15 -5 -18 -15 -18
-10 -5 25 7 18 16 25 28 23 11 -2 27 4 37 12 17 13 18 13 10 0 -8 -13 -6 -13
8 -1 9 7 15 17 12 21 -3 5 0 10 6 12 7 2 9 13 5 26 -4 12 -12 20 -17 17 -5 -4
-9 -2 -9 4 0 10 -18 10 -36 -2 -7 -4 -14 0 -18 8 -3 8 -1 17 5 21 6 3 8 11 6
17 -2 7 2 29 9 50 7 20 10 37 6 37 -21 1 60 40 88 43 19 3 36 9 38 16 2 6 10
11 17 11 19 0 25 23 9 37 -9 9 -15 9 -19 2 -5 -7 -11 -6 -21 2 -8 6 -14 8 -14
5 0 -4 -9 -2 -19 4 -14 7 -21 6 -24 -3 -3 -6 -6 -3 -6 9 -1 11 2 24 7 28 4 4
8 12 8 17 1 5 3 11 4 14 1 3 3 8 4 13 5 26 64 66 98 67 3 0 10 3 14 8 4 4 16
7 27 7 13 0 17 5 13 15 -3 8 -1 15 4 15 5 0 7 7 4 15 -4 8 -10 13 -14 10 -4
-3 -11 2 -14 11 -5 13 -9 14 -21 4 -8 -7 -15 -9 -15 -6 0 4 -9 2 -19 -3 -25
-14 -37 12 -15 33 8 9 14 17 13 18 -2 2 2 17 8 35 10 28 53 65 53 46 0 -4 7 0
14 9 7 10 24 19 37 22 13 2 23 8 22 13 -1 5 5 10 13 11 8 1 20 3 28 4 8 1 12
7 9 15 -4 9 0 11 11 7 9 -4 15 -9 12 -11z m-1316 -540 c5 -7 10 -17 10 -23 0
-6 5 -8 12 -4 6 4 8 3 5 -3 -4 -6 2 -22 13 -35 11 -14 16 -28 13 -32 -3 -3 -1
-6 5 -6 6 0 13 -8 16 -17 3 -10 17 -30 31 -45 14 -16 22 -28 18 -28 -4 0 -3
-4 4 -8 6 -4 13 -14 15 -21 2 -8 11 -23 21 -33 10 -10 15 -23 12 -28 -4 -6 -1
-10 4 -10 6 0 11 -11 11 -24 0 -14 5 -28 10 -31 7 -4 7 -12 0 -24 -5 -10 -6
-21 -3 -25 3 -3 1 -6 -6 -6 -7 0 -9 -4 -6 -10 3 -5 1 -10 -5 -10 -6 0 -9 -4
-5 -9 3 -5 1 -12 -5 -16 -6 -4 -8 -10 -5 -15 3 -5 1 -11 -5 -15 -6 -4 -8 -11
-5 -16 4 -5 1 -9 -4 -9 -6 0 -11 -8 -11 -17 0 -10 -8 -31 -18 -48 -10 -16 -24
-49 -32 -72 -7 -24 -17 -43 -22 -43 -4 0 -7 -3 -6 -7 4 -19 -15 -62 -25 -56
-5 3 -7 1 -4 -4 4 -6 -3 -33 -15 -59 -12 -27 -23 -51 -23 -54 -5 -16 -27 -69
-40 -92 -9 -15 -15 -29 -15 -30 1 -2 -4 -16 -10 -33 -6 -16 -10 -30 -8 -31 2
0 -3 -8 -10 -17 -15 -18 -58 -14 -83 9 -8 8 -21 14 -27 14 -7 0 -12 5 -12 12
0 6 -3 8 -6 5 -9 -8 -44 11 -44 24 0 6 5 7 10 4 6 -3 10 0 10 7 0 8 3 9 8 3 9
-12 32 -18 31 -7 -1 4 0 9 1 12 8 22 6 40 -4 40 -9 0 -12 9 -9 24 5 22 2 24
-24 20 -26 -4 -28 -2 -29 26 -1 16 3 30 8 30 6 0 8 6 5 13 -8 21 6 37 36 39
15 1 27 6 27 11 0 4 4 6 9 3 7 -5 20 5 57 46 17 19 -5 34 -45 30 -20 -3 -41
-8 -47 -13 -19 -16 -23 15 -7 50 12 25 18 29 29 20 10 -8 14 -8 14 0 0 6 10
11 23 11 30 0 54 30 47 57 -4 17 -9 20 -20 13 -20 -13 -33 -12 -24 1 4 8 0 8
-15 0 -11 -7 -22 -8 -22 -4 -5 31 -2 60 6 69 11 12 64 28 82 25 18 -3 35 56
21 75 -9 13 -70 6 -62 -7 3 -5 -2 -6 -10 -3 -39 15 -8 60 39 59 11 0 26 5 33
12 7 7 20 13 27 13 8 0 12 6 9 14 -3 7 2 21 11 30 9 9 13 16 8 16 -4 0 -1 5 7
10 12 8 8 10 -15 11 -53 2 -70 1 -87 -6 -14 -6 -18 -2 -18 16 0 42 23 74 52
73 15 0 25 3 22 7 -2 4 12 10 31 13 20 4 33 11 30 17 -4 5 0 9 7 10 10 0 10 2
0 6 -6 2 -9 10 -5 16 21 34 -2 56 -34 32 -23 -18 -37 -19 -27 -2 4 6 -2 4 -14
-7 -21 -18 -21 -18 -16 5 3 13 6 29 8 36 1 7 5 16 9 19 4 4 7 14 7 21 0 8 6
20 13 28 10 12 15 11 29 -8 10 -12 22 -27 28 -34z m1955 -31 c-3 -3 -11 0 -18
7 -9 10 -8 11 6 5 10 -3 15 -9 12 -12z m-2091 -2714 c-3 -4 -11 -5 -19 -1 -21
7 -19 12 4 10 11 0 18 -5 15 -9z"/>
</g>
</svg>
